<mxfile host="Electron" agent="Mozilla/5.0 (X11; Linux x86_64) AppleWebKit/537.36 (KHTML, like Gecko) draw.io/24.7.8 Chrome/128.0.6613.36 Electron/32.0.1 Safari/537.36" version="24.7.8">
  <diagram name="Page-1" id="2YBvvXClWsGukQMizWep">
    <mxGraphModel dx="1383" dy="640" grid="1" gridSize="10" guides="1" tooltips="1" connect="1" arrows="1" fold="1" page="1" pageScale="1" pageWidth="850" pageHeight="1100" math="0" shadow="0">
      <root>
        <mxCell id="0" />
        <mxCell id="1" parent="0" />
        <mxCell id="JImQJddazWWob89xweo1-2" value="&lt;u&gt;:Registro&lt;/u&gt;" style="html=1;whiteSpace=wrap;" vertex="1" parent="1">
          <mxGeometry x="990" y="10" width="110" height="50" as="geometry" />
        </mxCell>
        <mxCell id="JImQJddazWWob89xweo1-3" value="" style="html=1;points=[[0,0,0,0,5],[0,1,0,0,-5],[1,0,0,0,5],[1,1,0,0,-5]];perimeter=orthogonalPerimeter;outlineConnect=0;targetShapes=umlLifeline;portConstraint=eastwest;newEdgeStyle={&quot;curved&quot;:0,&quot;rounded&quot;:0};" vertex="1" parent="1">
          <mxGeometry x="1040" y="110" width="10" height="80" as="geometry" />
        </mxCell>
        <mxCell id="JImQJddazWWob89xweo1-4" value="realizarRegistro(DatosUsuario)" style="html=1;verticalAlign=bottom;startArrow=oval;endArrow=block;startSize=8;curved=0;rounded=0;entryX=0;entryY=0;entryDx=0;entryDy=5;" edge="1" target="JImQJddazWWob89xweo1-3" parent="1">
          <mxGeometry relative="1" as="geometry">
            <mxPoint x="820" y="115" as="sourcePoint" />
          </mxGeometry>
        </mxCell>
        <mxCell id="JImQJddazWWob89xweo1-5" value="" style="html=1;points=[[0,0,0,0,5],[0,1,0,0,-5],[1,0,0,0,5],[1,1,0,0,-5]];perimeter=orthogonalPerimeter;outlineConnect=0;targetShapes=umlLifeline;portConstraint=eastwest;newEdgeStyle={&quot;curved&quot;:0,&quot;rounded&quot;:0};" vertex="1" parent="1">
          <mxGeometry x="1210" y="150" width="10" height="80" as="geometry" />
        </mxCell>
        <mxCell id="JImQJddazWWob89xweo1-6" value="validarDatos(Datos Usuario)" style="html=1;verticalAlign=bottom;startArrow=oval;endArrow=block;startSize=8;curved=0;rounded=0;entryX=0;entryY=0;entryDx=0;entryDy=5;" edge="1" target="JImQJddazWWob89xweo1-5" parent="1">
          <mxGeometry relative="1" as="geometry">
            <mxPoint x="1050" y="155" as="sourcePoint" />
          </mxGeometry>
        </mxCell>
        <mxCell id="JImQJddazWWob89xweo1-7" value="&lt;u&gt;:Validar&lt;/u&gt;" style="html=1;whiteSpace=wrap;" vertex="1" parent="1">
          <mxGeometry x="1170" y="50" width="110" height="50" as="geometry" />
        </mxCell>
        <mxCell id="JImQJddazWWob89xweo1-8" value="" style="html=1;points=[[0,0,0,0,5],[0,1,0,0,-5],[1,0,0,0,5],[1,1,0,0,-5]];perimeter=orthogonalPerimeter;outlineConnect=0;targetShapes=umlLifeline;portConstraint=eastwest;newEdgeStyle={&quot;curved&quot;:0,&quot;rounded&quot;:0};" vertex="1" parent="1">
          <mxGeometry x="1400" y="190" width="10" height="80" as="geometry" />
        </mxCell>
        <mxCell id="JImQJddazWWob89xweo1-9" value="crearUsuaio(Datos usuario)" style="html=1;verticalAlign=bottom;startArrow=oval;endArrow=block;startSize=8;curved=0;rounded=0;entryX=0;entryY=0;entryDx=0;entryDy=5;" edge="1" target="JImQJddazWWob89xweo1-8" parent="1">
          <mxGeometry relative="1" as="geometry">
            <mxPoint x="1220" y="195" as="sourcePoint" />
            <mxPoint as="offset" />
          </mxGeometry>
        </mxCell>
        <mxCell id="JImQJddazWWob89xweo1-11" value="&lt;u&gt;:CrearModelo&lt;/u&gt;" style="html=1;whiteSpace=wrap;" vertex="1" parent="1">
          <mxGeometry x="1340" y="90" width="110" height="50" as="geometry" />
        </mxCell>
        <mxCell id="JImQJddazWWob89xweo1-12" value="" style="html=1;points=[[0,0,0,0,5],[0,1,0,0,-5],[1,0,0,0,5],[1,1,0,0,-5]];perimeter=orthogonalPerimeter;outlineConnect=0;targetShapes=umlLifeline;portConstraint=eastwest;newEdgeStyle={&quot;curved&quot;:0,&quot;rounded&quot;:0};" vertex="1" parent="1">
          <mxGeometry x="1610" y="220" width="10" height="80" as="geometry" />
        </mxCell>
        <mxCell id="JImQJddazWWob89xweo1-13" value="ingresarUsuarioEnSistema(Usuario )" style="html=1;verticalAlign=bottom;startArrow=oval;endArrow=block;startSize=8;curved=0;rounded=0;entryX=0;entryY=0;entryDx=0;entryDy=5;" edge="1" target="JImQJddazWWob89xweo1-12" parent="1">
          <mxGeometry relative="1" as="geometry">
            <mxPoint x="1410" y="225" as="sourcePoint" />
          </mxGeometry>
        </mxCell>
        <mxCell id="JImQJddazWWob89xweo1-14" value="&lt;u&gt;:ServicioUsuario&lt;/u&gt;" style="html=1;whiteSpace=wrap;" vertex="1" parent="1">
          <mxGeometry x="1550" y="120" width="110" height="50" as="geometry" />
        </mxCell>
        <mxCell id="JImQJddazWWob89xweo1-15" value="" style="endArrow=none;dashed=1;html=1;rounded=0;entryX=0.548;entryY=1.02;entryDx=0;entryDy=0;entryPerimeter=0;" edge="1" parent="1" source="JImQJddazWWob89xweo1-3" target="JImQJddazWWob89xweo1-2">
          <mxGeometry width="50" height="50" relative="1" as="geometry">
            <mxPoint x="1200" y="190" as="sourcePoint" />
            <mxPoint x="1250" y="140" as="targetPoint" />
          </mxGeometry>
        </mxCell>
        <mxCell id="JImQJddazWWob89xweo1-16" value="" style="endArrow=none;dashed=1;html=1;rounded=0;entryX=0.415;entryY=0.98;entryDx=0;entryDy=0;entryPerimeter=0;" edge="1" parent="1" source="JImQJddazWWob89xweo1-5" target="JImQJddazWWob89xweo1-7">
          <mxGeometry width="50" height="50" relative="1" as="geometry">
            <mxPoint x="1050" y="120" as="sourcePoint" />
            <mxPoint x="1050" y="31" as="targetPoint" />
          </mxGeometry>
        </mxCell>
        <mxCell id="JImQJddazWWob89xweo1-17" value="" style="endArrow=none;dashed=1;html=1;rounded=0;entryX=0.585;entryY=0.98;entryDx=0;entryDy=0;entryPerimeter=0;" edge="1" parent="1" target="JImQJddazWWob89xweo1-11">
          <mxGeometry width="50" height="50" relative="1" as="geometry">
            <mxPoint x="1404" y="190" as="sourcePoint" />
            <mxPoint x="1404.67" y="110" as="targetPoint" />
          </mxGeometry>
        </mxCell>
        <mxCell id="JImQJddazWWob89xweo1-18" value="" style="endArrow=none;dashed=1;html=1;rounded=0;entryX=0.587;entryY=1.011;entryDx=0;entryDy=0;entryPerimeter=0;" edge="1" parent="1" source="JImQJddazWWob89xweo1-12" target="JImQJddazWWob89xweo1-14">
          <mxGeometry width="50" height="50" relative="1" as="geometry">
            <mxPoint x="1060" y="130" as="sourcePoint" />
            <mxPoint x="1060" y="41" as="targetPoint" />
          </mxGeometry>
        </mxCell>
      </root>
    </mxGraphModel>
  </diagram>
</mxfile>
